GIL02_xslow2_ik
nRows=3
nColumns=375

# SIMM Motion File Header:
name GIL02_xslow2_ik
datacolumns 375
datarows 3
otherdata 1
range 0.42500000 0.44167000
endheader
time	pelvis_tx	pelvis_ty	pelvis_tz	pelvis_tilt	pelvis_list	pelvis_rotation	hip_flexion_r	hip_adduction_r	hip_rotation_r	knee_angle_r	ankle_angle_r	hip_flexion_l	hip_adduction_l	hip_rotation_l	knee_angle_l	ankle_angle_l	lumbar_extension	lumbar_bending	lumbar_rotation	subtalar_angle_r	mtp_angle_r	subtalar_angle_l	mtp_angle_l	asis_r_px	asis_r_py	asis_r_pz	asis_l_px	asis_l_py	asis_l_pz	midasis_px	midasis_py	midasis_pz	psis_r_px	psis_r_py	psis_r_pz	psis_l_px	psis_l_py	psis_l_pz	hip_r_px	hip_r_py	hip_r_pz	hip_l_px	hip_l_py	hip_l_pz	midhip_px	midhip_py	midhip_pz	epicondLat_r_px	epicondLat_r_py	epicondLat_r_pz	epicondMed_r_px	epicondMed_r_py	epicondMed_r_pz	thighwand_r_px	thighwand_r_py	thighwand_r_pz	upperleg1_r_px	upperleg1_r_py	upperleg1_r_pz	upperleg2_r_px	upperleg2_r_py	upperleg2_r_pz	malleolusLat_r_px	malleolusLat_r_py	malleolusLat_r_pz	malleolusMedv_r_px	malleolusMedv_r_py	malleolusMedv_r_pz	shankwand_r_px	shankwand_r_py	shankwand_r_pz	lowerleg1_r_px	lowerleg1_r_py	lowerleg1_r_pz	knee_r_px	knee_r_py	knee_r_pz	ankle_r_px	ankle_r_py	ankle_r_pz	toe_r_px	toe_r_py	toe_r_pz	epicondLat_l_px	epicondLat_l_py	epicondLat_l_pz	epicondMed_l_px	epicondMed_l_py	epicondMed_l_pz	thighwand_l_px	thighwand_l_py	thighwand_l_pz	upperleg1_l_px	upperleg1_l_py	upperleg1_l_pz	upperleg2_l_px	upperleg2_l_py	upperleg2_l_pz	malleolusLat_l_px	malleolusLat_l_py	malleolusLat_l_pz	malleolusMedv_l_px	malleolusMedv_l_py	malleolusMedv_l_pz	shankwand_l_px	shankwand_l_py	shankwand_l_pz	lowerleg1_l_px	lowerleg1_l_py	lowerleg1_l_pz	knee_l_px	knee_l_py	knee_l_pz	ankle_l_px	ankle_l_py	ankle_l_pz	toe_l_px	toe_l_py	toe_l_pz	subclavicle_r_px	subclavicle_r_py	subclavicle_r_pz	subclavicle_l_px	subclavicle_l_py	subclavicle_l_pz	neck_px	neck_py	neck_pz	sternalnotch_px	sternalnotch_py	sternalnotch_pz	xyphoidprocess_px	xyphoidprocess_py	xyphoidprocess_pz	midhip_tx	midhip_ty	midhip_tz	hip_r_tx	hip_r_ty	hip_r_tz	hip_l_tx	hip_l_ty	hip_l_tz	knee_r_tx	knee_r_ty	knee_r_tz	knee_l_tx	knee_l_ty	knee_l_tz	ankle_r_tx	ankle_r_ty	ankle_r_tz	ankle_l_tx	ankle_l_ty	ankle_l_tz	midasis_tx	midasis_ty	midasis_tz	asis_r_tx	asis_r_ty	asis_r_tz	asis_l_tx	asis_l_ty	asis_l_tz	psis_r_tx	psis_r_ty	psis_r_tz	psis_l_tx	psis_l_ty	psis_l_tz	epicondLat_r_tx	epicondLat_r_ty	epicondLat_r_tz	epicondLat_l_tx	epicondLat_l_ty	epicondLat_l_tz	epicondMed_r_tx	epicondMed_r_ty	epicondMed_r_tz	epicondMed_l_tx	epicondMed_l_ty	epicondMed_l_tz	malleolusLat_r_tx	malleolusLat_r_ty	malleolusLat_r_tz	malleolusLat_l_tx	malleolusLat_l_ty	malleolusLat_l_tz	malleolusMedv_r_tx	malleolusMedv_r_ty	malleolusMedv_r_tz	malleolusMedv_l_tx	malleolusMedv_l_ty	malleolusMedv_l_tz	neck_tx	neck_ty	neck_tz	subclavicle_r_tx	subclavicle_r_ty	subclavicle_r_tz	subclavicle_l_tx	subclavicle_l_ty	subclavicle_l_tz	sternalnotch_tx	sternalnotch_ty	sternalnotch_tz	xyphoidprocess_tx	xyphoidprocess_ty	xyphoidprocess_tz	thighwand_r_tx	thighwand_r_ty	thighwand_r_tz	thighwand_l_tx	thighwand_l_ty	thighwand_l_tz	upperleg1_r_tx	upperleg1_r_ty	upperleg1_r_tz	upperleg1_l_tx	upperleg1_l_ty	upperleg1_l_tz	upperleg2_r_tx	upperleg2_r_ty	upperleg2_r_tz	upperleg2_l_tx	upperleg2_l_ty	upperleg2_l_tz	shankwand_r_tx	shankwand_r_ty	shankwand_r_tz	shankwand_l_tx	shankwand_l_ty	shankwand_l_tz	lowerleg1_r_tx	lowerleg1_r_ty	lowerleg1_r_tz	lowerleg1_l_tx	lowerleg1_l_ty	lowerleg1_l_tz	toe_r_tx	toe_r_ty	toe_r_tz	toe_l_tx	toe_l_ty	toe_l_tz	ground_force_vx	ground_force_vy	ground_force_vz	ground_force_px	ground_force_py	ground_force_pz	ground_force_vx	ground_force_vy	ground_force_vz	ground_force_px	ground_force_py	ground_force_pz	ground_torque_x	ground_torque_y	ground_torque_z	ground_torque_x	ground_torque_y	ground_torque_z	ground_marker_px	ground_marker_py	ground_marker_pz	ground_marker_px	ground_marker_py	ground_marker_pz	ground_marker_px	ground_marker_py	ground_marker_pz	ground_marker_px	ground_marker_py	ground_marker_pz	ground_marker_px	ground_marker_py	ground_marker_pz	ground_marker_px	ground_marker_py	ground_marker_pz	ground_marker_px	ground_marker_py	ground_marker_pz	ground_marker_px	ground_marker_py	ground_marker_pz	ground_marker_px	ground_marker_py	ground_marker_pz	ground_marker_px	ground_marker_py	ground_marker_pz	ground_marker_px	ground_marker_py	ground_marker_pz	ground_marker_px	ground_marker_py	ground_marker_pz	ground_marker_px	ground_marker_py	ground_marker_pz	ground_marker_px	ground_marker_py	ground_marker_pz	ground_marker_px	ground_marker_py	ground_marker_pz	ground_marker_px	ground_marker_py	ground_marker_pz	ground_marker_px	ground_marker_py	ground_marker_pz	ground_marker_px	ground_marker_py	ground_marker_pz	ground_marker_px	ground_marker_py	ground_marker_pz	ground_marker_px	ground_marker_py	ground_marker_pz	ground_marker_px	ground_marker_py	ground_marker_pz	ground_marker_px	ground_marker_py	ground_marker_pz	ground_marker_px	ground_marker_py	ground_marker_pz	ground_marker_px	ground_marker_py	ground_marker_pz	ground_marker_px	ground_marker_py	ground_marker_pz	ground_marker_px	ground_marker_py	ground_marker_pz	ground_marker_px	ground_marker_py	ground_marker_pz	ground_marker_px	ground_marker_py	ground_marker_pz	ground_marker_px	ground_marker_py	ground_marker_pz	ground_marker_px	ground_marker_py	ground_marker_pz	ground_marker_px	ground_marker_py	ground_marker_pz	ground_marker_px	ground_marker_py	ground_marker_pz	ground_marker_px	ground_marker_py	ground_marker_pz	ground_marker_px	ground_marker_py	ground_marker_pz	ground_marker_px	ground_marker_py	ground_marker_pz	ground_marker_px	ground_marker_py	ground_marker_pz	ground_marker_px	ground_marker_py	ground_marker_pz
      0.42500000	      1.48661900	      0.94544488	     -0.29447632	     -3.04622537	      6.22487940	     -2.04822349	      5.02386851	     -7.11253397	     11.14157349	    -49.14245512	    -32.18168600	      4.77750463	      9.57358477	      7.36903532	     -1.31989494	      0.74757551	      0.97354161	     -5.87771428	      2.62134967	      0.00000000	      0.00000000	      0.00000000	      0.00000000	      1.52802050	      0.93053820	     -0.17625827	      1.54047289	      0.96213808	     -0.41198360	      1.49961413	      0.94470278	     -0.29401356	      1.34991628	      1.00488954	     -0.26334088	      1.35892957	      1.01256497	     -0.34849751	      1.41452510	      0.87988875	     -0.22630648	      1.42096473	      0.89640540	     -0.38065585	      1.41774491	      0.88814707	     -0.30348117	      1.46083768	      0.45559283	     -0.14689141	      1.41515809	      0.45805644	     -0.24921760	      1.51942303	      0.57260024	     -0.08902075	      1.51825972	      0.63549503	     -0.16152351	      1.51148799	      0.54754978	     -0.17787322	      1.12475584	      0.18841858	     -0.12298749	      1.14064489	      0.18175577	     -0.19275470	      1.24963187	      0.26079369	     -0.05191459	      1.20781849	      0.24841731	     -0.12005676	      1.43037962	      0.45382657	     -0.21874468	      1.14070118	      0.18595378	     -0.16902045	      1.12526997	      0.05938698	     -0.14920696	      1.45488626	      0.45593943	     -0.42031467	      1.42708473	      0.46751272	     -0.31382559	      1.59136060	      0.56586905	     -0.33989014	      1.53218000	      0.62151493	     -0.39456059	      1.51382905	      0.53653381	     -0.39269864	      1.40792548	      0.06452665	     -0.37518087	      1.42416361	      0.08149031	     -0.31236107	      1.44908686	      0.19674257	     -0.46351744	      1.42227654	      0.16398042	     -0.39405370	      1.42611374	      0.47805309	     -0.35563467	      1.42629342	      0.08104318	     -0.33272124	      1.54497654	      0.04517808	     -0.35686719	      1.44742781	      1.35320068	     -0.23176072	      1.45960322	      1.35745610	     -0.33932067	      1.31951945	      1.42148766	     -0.28858513	      1.43579928	      1.36217579	     -0.28436245	      1.52782868	      1.20380390	     -0.29201568	      1.41940100	      0.89379200	     -0.29882700	      1.41114600	      0.86596600	     -0.23138600	      1.41907900	      0.88044000	     -0.38090700	      1.42621900	      0.45539600	     -0.21152700	      1.43007100	      0.46388500	     -0.35782500	      1.13381500	      0.18571900	     -0.19718600	      1.42601300	      0.07089300	     -0.31106300	      1.50545600	      0.95501100	     -0.29343400	      1.49910500	      0.94342300	     -0.17373100	      1.51180700	      0.96659900	     -0.41313700	      1.31868900	      1.00186400	     -0.26216100	      1.32671200	      1.00735600	     -0.34755800	      1.43463400	      0.45850100	     -0.15371800	      1.44080800	      0.46101400	     -0.41475000	      1.43023200	      0.43571900	     -0.26136200	      1.39911600	      0.44974300	     -0.31320500	      1.12361200	      0.19871900	     -0.16075900	      1.41224300	      0.06672200	     -0.34731300	      1.15011600	      0.18546300	     -0.22520700	      1.42910800	      0.08745300	     -0.28582800	      1.32248100	      1.42616200	     -0.28817000	      1.44600100	      1.34329200	     -0.23445600	      1.45512300	      1.34373900	     -0.33901300	      1.43362300	      1.35220000	     -0.28516200	      1.50686800	      1.18435400	     -0.29136700	      1.47828100	      0.55310500	     -0.07975300	      1.57037600	      0.54211900	     -0.34929200	      1.49239000	      0.61609100	     -0.14588600	      1.50923400	      0.59715600	     -0.40072100	      1.49647500	      0.52883600	     -0.16460800	      1.48489800	      0.51232800	     -0.39757500	      1.23136000	      0.28480500	     -0.07847900	      1.44664000	      0.19490600	     -0.44514700	      1.20283000	      0.26029200	     -0.15138400	      1.42290500	      0.16506200	     -0.37303400	      1.13573800	      0.06121600	     -0.20152200	      1.55090100	      0.03969200	     -0.32270200	      0.00000000	      0.00000000	      0.00000000	      2.15462439	      0.00000000	     -0.18457130	    -24.02075322	    642.03445281	     19.32735684	      1.47512427	      0.00000000	     -0.31739001	      0.00000000	      0.00000000	      0.00000000	      0.00000000	      2.80724170	      0.00000000	      1.41940081	      0.89379227	     -0.29882693	      1.41114581	      0.86596560	     -0.23138610	      1.41907895	      0.88044006	     -0.38090715	      1.42621934	      0.45539576	     -0.21152654	      1.43007076	      0.46388510	     -0.35782522	      1.13381529	      0.18571948	     -0.19718571	      1.42601252	      0.07089342	     -0.31106347	      1.50545621	      0.95501077	     -0.29343370	      1.49910510	      0.94342285	     -0.17373051	      1.51180744	      0.96659875	     -0.41313690	      1.31868851	      1.00186360	     -0.26216131	      1.32671201	      1.00735629	     -0.34755826	      1.43463409	      0.45850092	     -0.15371825	      1.44080830	      0.46101412	     -0.41475028	      1.43023157	      0.43571869	     -0.26136243	      1.39911580	      0.44974300	     -0.31320503	      1.12361240	      0.19871926	     -0.16075897	      1.41224349	      0.06672233	     -0.34731287	      1.15011644	      0.18546274	     -0.22520739	      1.42910838	      0.08745315	     -0.28582832	      1.32248139	      1.42616236	     -0.28816950	      1.44600081	      1.34329224	     -0.23445629	      1.45512331	      1.34373915	     -0.33901259	      1.43362343	      1.35219955	     -0.28516230	      1.50686765	      1.18435383	     -0.29136676	      1.47828102	      0.55310470	     -0.07975315	      1.57037592	      0.54211938	     -0.34929150	      1.49239039	      0.61609054	     -0.14588614	      1.50923431	      0.59715629	     -0.40072128	      1.49647522	      0.52883577	     -0.16460849	      1.48489761	      0.51232809	     -0.39757517	      1.23135996	      0.28480533	     -0.07847942	      1.44664049	      0.19490632	     -0.44514692	      1.20283020	      0.26029196	     -0.15138428	      1.42290533	      0.16506197	     -0.37303445	      1.13573778	      0.06121597	     -0.20152189	      1.55090070	      0.03969194	     -0.32270157
      0.43333000	      1.48980801	      0.94554194	     -0.29521657	     -2.96163028	      6.16786989	     -2.11704066	      5.94141285	     -7.03007272	     11.38264764	    -50.59137020	    -32.77325404	      4.44809477	      9.55844928	      7.46484501	     -1.26830243	      0.92638212	      0.78522461	     -5.78307233	      2.75079074	      0.00000000	      0.00000000	      0.00000000	      0.00000000	      1.53109462	      0.93081583	     -0.17693572	      1.54377342	      0.96218365	     -0.41267998	      1.50280359	      0.94481783	     -0.29473822	      1.35298995	      1.00483518	     -0.26429978	      1.36209006	      1.01243286	     -0.34945415	      1.41772469	      0.87996071	     -0.22705968	      1.42431819	      0.89632310	     -0.38141898	      1.42102144	      0.88814191	     -0.30423933	      1.47145914	      0.45656322	     -0.14752471	      1.42559851	      0.45819145	     -0.24978660	      1.52810044	      0.57459017	     -0.08978914	      1.52574982	      0.63742195	     -0.16231776	      1.52047227	      0.54936545	     -0.17861919	      1.13351314	      0.19126320	     -0.12223389	      1.14929285	      0.18418350	     -0.19198486	      1.25900483	      0.26296620	     -0.05156528	      1.21704090	      0.25062760	     -0.11962170	      1.44110708	      0.45388665	     -0.21935046	      1.14940114	      0.18848089	     -0.16826858	      1.13170588	      0.06228723	     -0.14797352	      1.45645417	      0.45569637	     -0.42077791	      1.42846860	      0.46744316	     -0.31435605	      1.59321780	      0.56508697	     -0.34011021	      1.53439430	      0.62095533	     -0.39493891	      1.51567827	      0.53605394	     -0.39307378	      1.40809028	      0.06449345	     -0.37548198	      1.42425084	      0.08144491	     -0.31263888	      1.44988547	      0.19651031	     -0.46381865	      1.42281635	      0.16388558	     -0.39439062	      1.42762822	      0.47796951	     -0.35617383	      1.42642273	      0.08097684	     -0.33299414	      1.54512802	      0.04505068	     -0.35693953	      1.45118654	      1.35304127	     -0.23248960	      1.46321959	      1.35736293	     -0.34006292	      1.32332507	      1.42161061	     -0.28907903	      1.43950114	      1.36208116	     -0.28506763	      1.53122766	      1.20354635	     -0.29297964	      1.42254300	      0.89339600	     -0.29926400	      1.41445900	      0.86592900	     -0.23203800	      1.42250800	      0.88020700	     -0.38157200	      1.43664000	      0.45558700	     -0.21174000	      1.43165700	      0.46377300	     -0.35822300	      1.14267300	      0.18877600	     -0.19708700	      1.42613900	      0.07092400	     -0.31115100	      1.50870500	      0.95501600	     -0.29412400	      1.50226200	      0.94358600	     -0.17442600	      1.51514900	      0.96644500	     -0.41382200	      1.32186600	      1.00153800	     -0.26276900	      1.32999700	      1.00705600	     -0.34799100	      1.44512500	      0.45890400	     -0.15395400	      1.44249600	      0.46082000	     -0.41512500	      1.44027900	      0.43606800	     -0.26190400	      1.40105500	      0.44940800	     -0.31419000	      1.13263000	      0.20184300	     -0.16064000	      1.41233800	      0.06677600	     -0.34739000	      1.15884600	      0.18807200	     -0.22493700	      1.42906800	      0.08742600	     -0.28628300	      1.32617900	      1.42617700	     -0.28879200	      1.44968100	      1.34257500	     -0.23497200	      1.45885600	      1.34343700	     -0.33940600	      1.43732100	      1.35194200	     -0.28564800	      1.51015300	      1.18371600	     -0.29245900	      1.48738800	      0.55377000	     -0.08002300	      1.57236400	      0.54153700	     -0.34945500	      1.50085600	      0.61683100	     -0.14597200	      1.51197200	      0.59671700	     -0.40042900	      1.50576000	      0.52940900	     -0.16499800	      1.48744200	      0.51237800	     -0.39787800	      1.24098600	      0.28685000	     -0.07848200	      1.44716300	      0.19465200	     -0.44527700	      1.21240200	      0.26251800	     -0.15099200	      1.42306400	      0.16478700	     -0.37352900	      1.14241900	      0.06399400	     -0.20154900	      1.55095900	      0.03965000	     -0.32268100	      0.00000000	      0.00000000	      0.00000000	      2.15460815	      0.00000000	     -0.18498264	    -23.22349082	    644.85255483	     18.90437624	      1.47533997	      0.00000000	     -0.31736014	      0.00000000	      0.00000000	      0.00000000	      0.00000000	      2.74048730	      0.00000000	      1.42254329	      0.89339566	     -0.29926428	      1.41445887	      0.86592895	     -0.23203833	      1.42250836	      0.88020724	     -0.38157201	      1.43663967	      0.45558694	     -0.21174006	      1.43165660	      0.46377268	     -0.35822338	      1.14267337	      0.18877560	     -0.19708709	      1.42613888	      0.07092413	     -0.31115067	      1.50870538	      0.95501560	     -0.29412377	      1.50226212	      0.94358623	     -0.17442580	      1.51514876	      0.96644497	     -0.41382176	      1.32186604	      1.00153840	     -0.26276883	      1.32999659	      1.00705647	     -0.34799144	      1.44512534	      0.45890415	     -0.15395392	      1.44249582	      0.46082044	     -0.41512501	      1.44027853	      0.43606755	     -0.26190442	      1.40105474	      0.44940799	     -0.31419000	      1.13262951	      0.20184320	     -0.16064042	      1.41233766	      0.06677558	     -0.34739035	      1.15884626	      0.18807194	     -0.22493748	      1.42906809	      0.08742608	     -0.28628266	      1.32617855	      1.42617714	     -0.28879231	      1.44968116	      1.34257495	     -0.23497152	      1.45885587	      1.34343672	     -0.33940557	      1.43732142	      1.35194242	     -0.28564763	      1.51015306	      1.18371558	     -0.29245883	      1.48738801	      0.55376989	     -0.08002332	      1.57236373	      0.54153657	     -0.34945485	      1.50085592	      0.61683112	     -0.14597160	      1.51197183	      0.59671652	     -0.40042907	      1.50575972	      0.52940941	     -0.16499808	      1.48744166	      0.51237792	     -0.39787775	      1.24098647	      0.28684983	     -0.07848214	      1.44716251	      0.19465177	     -0.44527718	      1.21240246	      0.26251844	     -0.15099242	      1.42306411	      0.16478699	     -0.37352884	      1.14241862	      0.06399404	     -0.20154937	      1.55095863	      0.03965043	     -0.32268095
      0.44167000	      1.49309125	      0.94568917	     -0.29589407	     -2.87860197	      6.12205673	     -2.15832031	      6.84160885	     -6.94981058	     11.61252775	    -51.99854096	    -32.81508125	      4.11790421	      9.55819547	      7.57785114	     -1.22512496	      1.12855779	      0.61041663	     -5.66709231	      2.48183473	      0.00000000	      0.00000000	      0.00000000	      0.00000000	      1.53431815	      0.93111845	     -0.17757315	      1.54711309	      0.96230688	     -0.41333494	      1.50608749	      0.94498329	     -0.29540635	      1.35617114	      1.00482038	     -0.26511906	      1.36531832	      1.01235947	     -0.35027359	      1.42105195	      0.88006598	     -0.22773101	      1.42772723	      0.89630858	     -0.38209945	      1.42438959	      0.88818728	     -0.30491523	      1.48210431	      0.45766889	     -0.14815753	      1.43604298	      0.45848328	     -0.25033890	      1.53683568	      0.57666003	     -0.09055911	      1.53329153	      0.63941785	     -0.16310326	      1.52948061	      0.55127885	     -0.17936761	      1.14244730	      0.19412828	     -0.12144404	      1.15809824	      0.18665390	     -0.19118284	      1.26853653	      0.26519583	     -0.05119841	      1.22640888	      0.25289117	     -0.11915977	      1.45184263	      0.45410714	     -0.21994410	      1.15826396	      0.19104545	     -0.16748416	      1.13957886	      0.06507960	     -0.14666780	      1.45807873	      0.45552804	     -0.42115151	      1.42992641	      0.46745228	     -0.31479339	      1.59513938	      0.56438401	     -0.34026499	      1.53666459	      0.62047019	     -0.39524411	      1.51758575	      0.53564978	     -0.39337066	      1.40826824	      0.06454340	     -0.37568501	      1.42436261	      0.08148162	     -0.31282136	      1.45069996	      0.19635279	     -0.46402804	      1.42337882	      0.16387050	     -0.39463194	      1.42921086	      0.47796196	     -0.35661962	      1.42657341	      0.08099196	     -0.33317192	      1.54530441	      0.04503587	     -0.35694432	      1.45458473	      1.35292183	     -0.23266771	      1.46717661	      1.35734366	     -0.34017298	      1.32712600	      1.42176073	     -0.28983546	      1.44318389	      1.36203907	     -0.28529483	      1.53469423	      1.20336504	     -0.29291381	      1.42617900	      0.89346100	     -0.29937600	      1.41777500	      0.86586100	     -0.23266200	      1.42587100	      0.87997100	     -0.38220900	      1.44699700	      0.45589100	     -0.21195800	      1.43322100	      0.46365800	     -0.35853700	      1.15157300	      0.19173100	     -0.19704100	      1.42626200	      0.07090700	     -0.31122400	      1.51192200	      0.95500800	     -0.29481300	      1.50544300	      0.94371600	     -0.17513600	      1.51840000	      0.96630000	     -0.41449000	      1.32500800	      1.00120500	     -0.26331400	      1.33323500	      1.00671900	     -0.34834000	      1.45557000	      0.45941900	     -0.15419800	      1.44415300	      0.46061700	     -0.41541600	      1.44913900	      0.43695200	     -0.26293500	      1.40341500	      0.44854700	     -0.31512300	      1.14168000	      0.20485400	     -0.16057300	      1.41243000	      0.06678700	     -0.34745500	      1.16746800	      0.19101000	     -0.22480200	      1.42876000	      0.08720700	     -0.28644600	      1.33017400	      1.42623400	     -0.28939000	      1.45307800	      1.34231300	     -0.23538800	      1.46231600	      1.34286500	     -0.33970300	      1.44094600	      1.35168200	     -0.28612200	      1.51284100	      1.18302700	     -0.29237200	      1.49651000	      0.55456500	     -0.08027300	      1.57435200	      0.54099200	     -0.34956400	      1.50852300	      0.61787700	     -0.14605500	      1.51417400	      0.59633100	     -0.40043900	      1.51442000	      0.53001900	     -0.16601100	      1.48996500	      0.51220500	     -0.39827800	      1.25069200	      0.28892000	     -0.07850500	      1.44767800	      0.19435600	     -0.44535900	      1.22217100	      0.26462100	     -0.15094400	      1.42345000	      0.16450700	     -0.37355800	      1.15027500	      0.06679100	     -0.20146000	      1.55100100	      0.03961800	     -0.32267200	      0.00000000	      0.00000000	      0.00000000	      2.15459839	      0.00000000	     -0.18546042	    -22.35818248	    647.73232677	     18.36488681	      1.47554016	      0.00000000	     -0.31735367	      0.00000000	      0.00000000	      0.00000000	      0.00000000	      2.66221777	      0.00000000	      1.42617893	      0.89346123	     -0.29937580	      1.41777515	      0.86586094	     -0.23266207	      1.42587090	      0.87997103	     -0.38220924	      1.44699657	      0.45589137	     -0.21195816	      1.43322110	      0.46365818	     -0.35853723	      1.15157259	      0.19173069	     -0.19704144	      1.42626226	      0.07090666	     -0.31122372	      1.51192153	      0.95500815	     -0.29481268	      1.50544286	      0.94371641	     -0.17513584	      1.51840019	      0.96629989	     -0.41448951	      1.32500839	      1.00120473	     -0.26331431	      1.33323467	      1.00671947	     -0.34833992	      1.45557046	      0.45941946	     -0.15419751	      1.44415331	      0.46061698	     -0.41541636	      1.44913888	      0.43695199	     -0.26293486	      1.40341473	      0.44854671	     -0.31512338	      1.14167964	      0.20485373	     -0.16057341	      1.41243041	      0.06678706	     -0.34745508	      1.16746795	      0.19101030	     -0.22480161	      1.42875993	      0.08720747	     -0.28644598	      1.33017385	      1.42623365	     -0.28939027	      1.45307803	      1.34231341	     -0.23538846	      1.46231568	      1.34286535	     -0.33970314	      1.44094622	      1.35168171	     -0.28612196	      1.51284111	      1.18302727	     -0.29237249	      1.49650979	      0.55456519	     -0.08027294	      1.57435167	      0.54099184	     -0.34956363	      1.50852346	      0.61787742	     -0.14605549	      1.51417375	      0.59633058	     -0.40043923	      1.51441967	      0.53001887	     -0.16601107	      1.48996520	      0.51220471	     -0.39827803	      1.25069177	      0.28891954	     -0.07850517	      1.44767773	      0.19435638	     -0.44535932	      1.22217107	      0.26462135	     -0.15094417	      1.42344975	      0.16450664	     -0.37355804	      1.15027475	      0.06679139	     -0.20145959	      1.55100083	      0.03961845	     -0.32267168
